<svg width="15" height="15" viewBox="0 0 15 15" fill="none" xmlns="http://www.w3.org/2000/svg">
<path d="M13.7324 7.5C13.7324 9.56875 12.0512 11.25 9.98242 11.25C9.01992 11.25 8.14492 10.8875 7.48242 10.2875C8.25117 9.60625 8.73242 8.60625 8.73242 7.5C8.73242 6.39375 8.25117 5.39375 7.48242 4.7125C8.14492 4.1125 9.01992 3.75 9.98242 3.75C12.0512 3.75 13.7324 5.43125 13.7324 7.5Z" stroke="#E3DFFF" stroke-width="0.9375" stroke-linecap="round" stroke-linejoin="round"/>
<path d="M8.73242 7.5C8.73242 8.60625 8.25117 9.60625 7.48242 10.2875C6.81992 10.8875 5.94492 11.25 4.98242 11.25C2.91367 11.25 1.23242 9.56875 1.23242 7.5C1.23242 5.43125 2.91367 3.75 4.98242 3.75C5.94492 3.75 6.81992 4.1125 7.48242 4.7125C8.25117 5.39375 8.73242 6.39375 8.73242 7.5Z" stroke="#E3DFFF" stroke-width="0.9375" stroke-linecap="round" stroke-linejoin="round"/>
</svg>
