<svg width="24" height="25" viewBox="0 0 24 25" fill="none" xmlns="http://www.w3.org/2000/svg">
<g clip-path="url(#clip0_22_4379)">
<path d="M21.8095 4.85589C20.2695 8.69589 16.4095 13.9159 13.1795 16.5059L11.2095 18.0859C10.9595 18.2659 10.7095 18.4259 10.4295 18.5359C10.4295 18.3559 10.4195 18.1559 10.3895 17.9659C10.2795 17.1259 9.89953 16.3459 9.22953 15.6759C8.54953 14.9959 7.71953 14.5959 6.86953 14.4859C6.66953 14.4759 6.46953 14.4559 6.26953 14.4759C6.37953 14.1659 6.54953 13.8759 6.75953 13.6359L8.31953 11.6659C10.8995 8.43589 16.1395 4.55589 19.9695 3.02589C20.5595 2.80589 21.1295 2.96589 21.4895 3.33589C21.8695 3.70589 22.0495 4.27589 21.8095 4.85589Z" stroke="#393540" stroke-width="1.5" stroke-linecap="round" stroke-linejoin="round"/>
<path d="M10.4293 18.5358C10.4293 19.6358 10.0093 20.6858 9.2193 21.4858C8.6093 22.0958 7.7793 22.5158 6.7893 22.6458L4.3293 22.9158C2.9893 23.0658 1.8393 21.9258 1.9993 20.5658L2.2693 18.1058C2.5093 15.9158 4.3393 14.5158 6.2793 14.4758C6.4793 14.4658 6.6893 14.4758 6.8793 14.4858C7.7293 14.5958 8.5593 14.9858 9.2393 15.6758C9.9093 16.3458 10.2893 17.1258 10.3993 17.9658C10.4093 18.1558 10.4293 18.3458 10.4293 18.5358Z" stroke="#393540" stroke-width="1.5" stroke-linecap="round" stroke-linejoin="round"/>
<path d="M14.2398 15.3863C14.2398 12.7763 12.1198 10.6562 9.50977 10.6562" stroke="#393540" stroke-width="1.5" stroke-linecap="round" stroke-linejoin="round"/>
<path d="M20.1207 13.6465L20.8607 14.3765C22.3507 15.8665 22.3507 17.3365 20.8607 18.8265L17.9007 21.7865C16.4307 23.2565 14.9407 23.2565 13.4707 21.7865" stroke="#393540" stroke-width="1.5" stroke-linecap="round"/>
<path d="M3.11031 11.4256C1.64031 9.93559 1.64031 8.46559 3.11031 6.97559L6.07031 4.01559C7.54031 2.54559 9.03031 2.54559 10.5003 4.01559L11.2403 4.75559" stroke="#393540" stroke-width="1.5" stroke-linecap="round"/>
<path d="M11.2508 4.76562L7.55078 8.46563" stroke="#393540" stroke-width="1.5" stroke-linecap="round"/>
<path d="M20.1202 13.6465L17.1602 16.5965" stroke="#393540" stroke-width="1.5" stroke-linecap="round"/>
</g>
<defs>
<clipPath id="clip0_22_4379">
<rect width="24" height="24" fill="white" transform="translate(0 0.916016)"/>
</clipPath>
</defs>
</svg>
