<svg width="24" height="25" viewBox="0 0 24 25" fill="none" xmlns="http://www.w3.org/2000/svg">
<path d="M18.0001 8.07602C17.9401 8.06602 17.8701 8.06602 17.8101 8.07602C16.4301 8.02602 15.3301 6.89602 15.3301 5.49602C15.3301 4.06602 16.4801 2.91602 17.9101 2.91602C19.3401 2.91602 20.4901 4.07602 20.4901 5.49602C20.4801 6.89602 19.3801 8.02602 18.0001 8.07602Z" stroke="#393540" stroke-width="1.5" stroke-linecap="round" stroke-linejoin="round"/>
<path d="M16.9695 15.3562C18.3395 15.5862 19.8495 15.3462 20.9095 14.6362C22.3195 13.6962 22.3195 12.1562 20.9095 11.2162C19.8395 10.5062 18.3095 10.2662 16.9395 10.5062" stroke="#393540" stroke-width="1.5" stroke-linecap="round" stroke-linejoin="round"/>
<path d="M5.96852 8.07602C6.02852 8.06602 6.09852 8.06602 6.15852 8.07602C7.53852 8.02602 8.63852 6.89602 8.63852 5.49602C8.63852 4.06602 7.48852 2.91602 6.05852 2.91602C4.62852 2.91602 3.47852 4.07602 3.47852 5.49602C3.48852 6.89602 4.58852 8.02602 5.96852 8.07602Z" stroke="#393540" stroke-width="1.5" stroke-linecap="round" stroke-linejoin="round"/>
<path d="M6.99945 15.3562C5.62945 15.5862 4.11945 15.3462 3.05945 14.6362C1.64945 13.6962 1.64945 12.1562 3.05945 11.2162C4.12945 10.5062 5.65945 10.2662 7.02945 10.5062" stroke="#393540" stroke-width="1.5" stroke-linecap="round" stroke-linejoin="round"/>
<path d="M12.0001 15.5457C11.9401 15.5357 11.8701 15.5357 11.8101 15.5457C10.4301 15.4957 9.33008 14.3657 9.33008 12.9657C9.33008 11.5357 10.4801 10.3857 11.9101 10.3857C13.3401 10.3857 14.4901 11.5457 14.4901 12.9657C14.4801 14.3657 13.3801 15.5057 12.0001 15.5457Z" stroke="#393540" stroke-width="1.5" stroke-linecap="round" stroke-linejoin="round"/>
<path d="M9.0907 18.6954C7.6807 19.6354 7.6807 21.1754 9.0907 22.1154C10.6907 23.1854 13.3107 23.1854 14.9107 22.1154C16.3207 21.1754 16.3207 19.6354 14.9107 18.6954C13.3207 17.6354 10.6907 17.6354 9.0907 18.6954Z" stroke="#393540" stroke-width="1.5" stroke-linecap="round" stroke-linejoin="round"/>
</svg>
