<svg width="24" height="25" viewBox="0 0 24 25" fill="none" xmlns="http://www.w3.org/2000/svg">
<path d="M15.5909 13.176C18.4242 13.176 20.7209 10.8792 20.7209 8.04602C20.7209 5.2128 18.4242 2.91602 15.5909 2.91602C12.7577 2.91602 10.4609 5.2128 10.4609 8.04602C10.4609 10.8792 12.7577 13.176 15.5909 13.176Z" stroke="#393540" stroke-width="1.5" stroke-miterlimit="10"/>
<path d="M6.35928 20.3563C8.06032 20.3563 9.4393 18.9773 9.4393 17.2763C9.4393 15.5753 8.06032 14.1963 6.35928 14.1963C4.65825 14.1963 3.2793 15.5753 3.2793 17.2763C3.2793 18.9773 4.65825 20.3563 6.35928 20.3563Z" stroke="#393540" stroke-width="1.5" stroke-miterlimit="10"/>
<path d="M16.6205 22.9159C18.0344 22.9159 19.1805 21.7697 19.1805 20.3559C19.1805 18.942 18.0344 17.7959 16.6205 17.7959C15.2067 17.7959 14.0605 18.942 14.0605 20.3559C14.0605 21.7697 15.2067 22.9159 16.6205 22.9159Z" stroke="#393540" stroke-width="1.5" stroke-miterlimit="10"/>
</svg>
