<svg width="15" height="15" viewBox="0 0 15 15" fill="none" xmlns="http://www.w3.org/2000/svg">
<path d="M1.25 13.7499H13.75" stroke="#E3DFFF" stroke-width="0.9375" stroke-linecap="round" stroke-linejoin="round"/>
<path d="M1.94336 13.7499V8.12491C1.94336 7.08741 2.87461 6.24991 4.02461 6.24991H10.9684C12.1184 6.24991 13.0496 7.08741 13.0496 8.12491V13.7499" stroke="#E3DFFF" stroke-width="0.9375" stroke-linecap="round" stroke-linejoin="round"/>
<path d="M3.47461 6.25009V4.48134C3.47461 3.73134 4.14961 3.12509 4.98711 3.12509H10.0184C10.8496 3.12509 11.5246 3.73134 11.5246 4.48134V6.25009" stroke="#E3DFFF" stroke-width="0.9375" stroke-linecap="round" stroke-linejoin="round"/>
<path d="M2.20703 8.73753L2.43828 8.74378C2.90078 8.75003 3.26953 9.12503 3.26953 9.58753V9.79378C3.26953 10.2563 3.64453 10.6375 4.11328 10.6375C4.57578 10.6375 4.95703 10.2625 4.95703 9.79378V9.60003C4.95703 9.13753 5.33203 8.75628 5.80078 8.75628C6.26328 8.75628 6.64453 9.13128 6.64453 9.60003V9.79378C6.64453 10.2563 7.01953 10.6375 7.48828 10.6375C7.95078 10.6375 8.33203 10.2625 8.33203 9.79378V9.60003C8.33203 9.13753 8.70703 8.75628 9.17578 8.75628C9.63828 8.75628 10.0195 9.13128 10.0195 9.60003V9.79378C10.0195 10.2563 10.3945 10.6375 10.8633 10.6375C11.3258 10.6375 11.707 10.2625 11.707 9.79378V9.60003C11.707 9.13753 12.082 8.75628 12.5508 8.75628H12.832" stroke="#E3DFFF" stroke-width="0.9375" stroke-linecap="round" stroke-linejoin="round"/>
<path d="M5 3.125V1.875" stroke="#E3DFFF" stroke-width="0.9375" stroke-linecap="round" stroke-linejoin="round"/>
<path d="M10 3.125V1.875" stroke="#E3DFFF" stroke-width="0.9375" stroke-linecap="round" stroke-linejoin="round"/>
<path d="M7.5 3.12509V1.25009" stroke="#E3DFFF" stroke-width="0.9375" stroke-linecap="round" stroke-linejoin="round"/>
</svg>
