<svg width="24" height="25" viewBox="0 0 24 25" fill="none" xmlns="http://www.w3.org/2000/svg">
<path d="M14 16.5C14 18.27 13.23 19.87 12 20.96C10.94 21.92 9.54 22.5 8 22.5C4.69 22.5 2 19.81 2 16.5C2 13.74 3.88 11.4 6.42 10.71C7.11 12.45 8.59 13.79 10.42 14.29C10.92 14.43 11.45 14.5 12 14.5C12.55 14.5 13.08 14.43 13.58 14.29C13.85 14.97 14 15.72 14 16.5Z" stroke="#292D32" stroke-width="1.5" stroke-linecap="round" stroke-linejoin="round"/>
<path d="M18 8.5C18 9.28 17.85 10.03 17.58 10.71C16.89 12.45 15.41 13.79 13.58 14.29C13.08 14.43 12.55 14.5 12 14.5C11.45 14.5 10.92 14.43 10.42 14.29C8.59 13.79 7.11 12.45 6.42 10.71C6.15 10.03 6 9.28 6 8.5C6 5.19 8.69 2.5 12 2.5C15.31 2.5 18 5.19 18 8.5Z" stroke="#292D32" stroke-width="1.5" stroke-linecap="round" stroke-linejoin="round"/>
<path d="M22 16.5C22 19.81 19.31 22.5 16 22.5C14.46 22.5 13.06 21.92 12 20.96C13.23 19.87 14 18.27 14 16.5C14 15.72 13.85 14.97 13.58 14.29C15.41 13.79 16.89 12.45 17.58 10.71C20.12 11.4 22 13.74 22 16.5Z" stroke="#292D32" stroke-width="1.5" stroke-linecap="round" stroke-linejoin="round"/>
</svg>
