<svg width="139" height="139" viewBox="0 0 139 139" fill="none" xmlns="http://www.w3.org/2000/svg">
<path d="M95.1722 103.871C96.2316 104.483 97.1498 104.636 97.8914 104.33L98.2092 104.166C98.2092 104.166 98.2562 104.13 98.2797 104.107C98.9742 103.636 99.3274 102.765 99.3274 101.505C99.3274 100.151 98.9272 98.7859 98.1267 97.4204C97.338 96.0432 96.3493 95.019 95.1722 94.3363L91.0168 91.9467V82.4117L95.1722 84.813C96.3493 85.484 97.338 85.6017 98.1267 85.1426C98.9272 84.6953 99.3274 83.789 99.3274 82.4353C99.3274 81.0815 98.9272 79.7277 98.1267 78.3504C97.338 76.9849 96.3493 75.9608 95.1722 75.2781L91.0168 72.8768V63.3417C91.0168 62.812 90.9815 62.2823 90.9109 61.7526C90.6519 59.6337 89.8748 57.4443 88.58 55.2077C86.9555 52.4061 85.0016 50.3343 82.7179 49.0159L79.257 47.0146L75.1017 44.6251L52.2649 31.4409L39.8106 24.2486L24.5664 15.4552C22.5182 14.2781 20.7408 13.9956 19.2222 14.6077L18.7042 14.8667C17.0798 15.7966 16.2676 17.5623 16.2676 20.1874V86.9083C16.2676 89.5216 17.0798 92.241 18.7042 95.0426C20.3287 97.856 22.2827 99.916 24.5664 101.234L82.7179 134.807C85.0016 136.125 86.9555 136.314 88.58 135.396C90.2045 134.466 91.0168 132.688 91.0168 130.063V120.54L95.1722 122.929C96.3493 123.612 97.338 123.73 98.1267 123.271C98.9272 122.824 99.3274 121.917 99.3274 120.563C99.3274 120.01 99.2569 119.469 99.1274 118.915C98.939 118.103 98.5975 117.291 98.1267 116.478C97.338 115.113 96.3493 114.077 95.1722 113.406L91.0168 111.005V101.47L95.1722 103.871ZM51.5586 97.7617C51.5586 99.1036 51.1702 100.01 50.3697 100.457C49.5692 100.917 48.5922 100.799 47.415 100.128L32.8772 91.7347C31.7 91.0519 30.7112 90.0278 29.9108 88.6505C29.1221 87.285 28.7218 85.9195 28.7218 84.5658V75.0428C28.7218 73.689 29.1221 72.7825 29.9108 72.3352C30.7112 71.8761 31.7 71.9939 32.8772 72.6649L39.9166 76.726L47.415 81.058C48.5922 81.7408 49.5692 82.7649 50.3697 84.1421C51.1702 85.5076 51.5586 86.873 51.5586 88.2268V97.7617ZM51.5586 73.9243C51.5586 75.2781 51.1702 76.1846 50.3697 76.6319C49.5692 77.091 48.5922 76.9732 47.415 76.2904L39.8106 71.9114L32.8772 67.9091C31.7 67.2263 30.7112 66.2022 29.9108 64.8249C29.1221 63.4477 28.7218 62.0941 28.7218 60.7403V36.9148C28.7218 35.561 29.1221 34.6545 29.9108 34.2072C30.7112 33.7481 31.7 33.8659 32.8772 34.5487L39.8106 38.551L47.415 42.9418C48.5922 43.6128 49.5692 44.6368 50.3697 46.014C51.1702 47.3913 51.5586 48.745 51.5586 50.0988V73.9243ZM78.5624 113.347C78.5624 114.689 78.1623 115.596 77.3618 116.043C76.5731 116.502 75.5843 116.384 74.4072 115.713L59.8692 107.32C58.6921 106.637 57.7034 105.613 56.9147 104.236C56.1142 102.871 55.714 101.505 55.714 100.151V76.3257C55.714 74.972 56.1142 74.0775 56.9147 73.6184C57.7034 73.1711 58.6921 73.2769 59.8692 73.9597L74.4072 82.3528C74.6426 82.494 74.878 82.6354 75.1017 82.812C75.9728 83.4594 76.7379 84.3421 77.3618 85.4251C78.1623 86.8024 78.5624 88.168 78.5624 89.51V113.347ZM78.5624 75.2193C78.5624 76.5613 78.1623 77.4676 77.3618 77.9267C76.7379 78.2798 75.9846 78.2916 75.1017 77.9267C74.878 77.8443 74.6426 77.7267 74.4072 77.5854L59.8692 69.1923C58.6921 68.5095 57.7034 67.4854 56.9147 66.1082C56.1142 64.7427 55.714 63.377 55.714 62.0233V52.5003C55.714 51.1465 56.1142 50.24 56.9147 49.7927C57.7034 49.3336 58.6921 49.4513 59.8692 50.1341L74.4072 58.5273C74.6426 58.6685 74.878 58.8098 75.1017 58.9864C75.9728 59.6338 76.7379 60.5048 77.3618 61.5995C78.1623 62.9768 78.5624 64.3305 78.5624 65.6843V75.2193Z" stroke="white" stroke-width="2.05348" stroke-linecap="round" stroke-linejoin="round"/>
<path d="M78.5633 65.6848V75.2199C78.5633 76.5618 78.1632 77.4682 77.3627 77.9273C76.7388 78.2805 75.9853 78.2922 75.1024 77.9273C74.8788 77.8449 74.6435 77.7272 74.408 77.586L59.8701 69.1929C58.6929 68.5101 57.7042 67.486 56.9155 66.1087C56.1151 64.7432 55.7148 63.3776 55.7148 62.0239V52.5008C55.7148 51.1471 56.1151 50.2406 56.9155 49.7932C57.7042 49.3342 58.6929 49.452 59.8701 50.1347L74.408 58.5278C74.6435 58.6691 74.8788 58.8104 75.1024 58.9869C75.9735 59.6344 76.7388 60.5055 77.3627 61.6002C78.1632 62.9775 78.5633 64.3311 78.5633 65.6848Z" stroke="white" stroke-width="2.05348" stroke-linecap="round" stroke-linejoin="round"/>
<path d="M51.5594 88.2274V97.7623C51.5594 99.1043 51.171 100.011 50.3705 100.458C49.57 100.917 48.593 100.799 47.4159 100.128L32.878 91.7353C31.7009 91.0526 30.712 90.0284 29.9116 88.6512C29.1229 87.2857 28.7227 85.9202 28.7227 84.5664V75.0433C28.7227 73.6895 29.1229 72.7831 29.9116 72.3358C30.712 71.8767 31.7009 71.9944 32.878 72.6654L39.9174 76.7266L47.4159 81.0585C48.593 81.7413 49.57 82.7654 50.3705 84.1427C51.171 85.5082 51.5594 86.8737 51.5594 88.2274Z" stroke="white" stroke-width="2.05348" stroke-linecap="round" stroke-linejoin="round"/>
<path d="M78.5633 89.5102V113.348C78.5633 114.69 78.1632 115.596 77.3627 116.043C76.574 116.502 75.5852 116.385 74.408 115.714L59.8701 107.32C58.6929 106.638 57.7042 105.614 56.9155 104.236C56.1151 102.871 55.7148 101.505 55.7148 100.152V76.3261C55.7148 74.9724 56.1151 74.0777 56.9155 73.6186C57.7042 73.1713 58.6929 73.2773 59.8701 73.96L74.408 82.3531C74.6435 82.4944 74.8788 82.6356 75.1024 82.8122C75.9735 83.4597 76.7388 84.3424 77.3627 85.4254C78.1632 86.8027 78.5633 88.1683 78.5633 89.5102Z" stroke="white" stroke-width="2.05348" stroke-linecap="round" stroke-linejoin="round"/>
<path d="M98.2792 104.107C98.2792 104.107 98.2324 104.154 98.209 104.166L98.3026 104.119C98.3026 104.119 98.2909 104.119 98.2792 104.119V104.107Z" stroke="white" stroke-width="2.05348" stroke-linecap="round" stroke-linejoin="round"/>
<path d="M51.5594 50.0988V73.9244C51.5594 75.2781 51.171 76.1847 50.3705 76.632C49.57 77.0911 48.593 76.9732 47.4159 76.2905L39.8114 71.9116L32.878 67.9092C31.7009 67.2264 30.712 66.2024 29.9116 64.8251C29.1229 63.4479 28.7227 62.0941 28.7227 60.7404V36.9148C28.7227 35.5611 29.1229 34.6546 29.9116 34.2072C30.712 33.7482 31.7009 33.866 32.878 34.5487L39.8114 38.5511L47.4159 42.9418C48.593 43.6128 49.57 44.6369 50.3705 46.0142C51.171 47.3915 51.5594 48.7451 51.5594 50.0988Z" stroke="white" stroke-width="2.05348" stroke-linecap="round" stroke-linejoin="round"/>
<path d="M114.56 51.5714V61.1065L96.8676 69.9586L91.0173 72.878V63.3429C91.0173 62.8132 90.982 62.2835 90.9113 61.7538C90.6524 59.6349 89.8753 57.4455 88.5804 55.2089C86.956 52.4073 85.0019 50.3355 82.7182 49.0171L79.2575 47.0158L75.102 44.6263L52.2653 31.4421L39.8111 24.2497L24.5668 15.4565C22.5186 14.2793 20.7412 13.9968 19.2227 14.6089L42.2477 3.09632C43.8722 2.16637 45.8262 2.36649 48.1099 3.6849L106.261 37.2456C108.545 38.564 110.499 40.6358 112.124 43.4374C113.748 46.239 114.56 48.9581 114.56 51.5714Z" stroke="white" stroke-width="2.05348" stroke-linecap="round" stroke-linejoin="round"/>
<path d="M114.561 76.9263V80.1752L102.106 86.4024L91.0176 91.9468V82.4118L95.1729 84.8131C96.3501 85.4841 97.3388 85.6018 98.1275 85.1427L102.106 83.1534L114.561 76.9263Z" stroke="white" stroke-width="2.05348" stroke-linecap="round" stroke-linejoin="round"/>
<path d="M114.98 115V118.238C114.98 120.863 114.168 122.64 112.543 123.57L89 135.342C90.6245 134.412 91.4368 132.634 91.4368 130.009V120.486L95.5922 122.876C96.7693 123.558 97.758 123.676 98.5467 123.217L103.126 120.933L114.98 115Z" stroke="white" stroke-width="2.05348" stroke-linecap="round" stroke-linejoin="round"/>
<path d="M122.871 108.792C122.871 110.146 122.471 111.052 121.671 111.5L121.423 111.617L114.561 115.055L102.707 120.988L98.1275 123.271C98.9279 122.824 99.3282 121.918 99.3282 120.564C99.3282 120.011 99.2577 119.469 99.1282 118.916C98.9398 118.104 98.5983 117.291 98.1275 116.479C97.3388 115.114 96.3501 114.078 95.1729 113.407L91.0176 111.005L114.561 99.2337L118.716 101.635C119.893 102.306 120.882 103.342 121.671 104.707C122.471 106.085 122.871 107.438 122.871 108.792Z" stroke="white" stroke-width="2.05348" stroke-linecap="round" stroke-linejoin="round"/>
<path d="M114.561 95.997V99.2342L91.0176 111.006V101.471L95.1729 103.872C96.2324 104.484 97.1506 104.637 97.8922 104.331L98.21 104.167L98.3042 104.119H98.3159L102.059 102.248L114.561 95.997Z" stroke="white" stroke-width="2.05348" stroke-linecap="round" stroke-linejoin="round"/>
<path d="M122.871 70.6651C122.871 72.0189 122.471 72.9252 121.671 73.3725L121.423 73.4902L114.561 76.9276L102.106 83.1547L98.1275 85.144C98.9279 84.6967 99.3282 83.7904 99.3282 82.4367C99.3282 81.083 98.9279 79.7291 98.1275 78.3518C97.3388 76.9863 96.3501 75.9622 95.1729 75.2795L91.0176 72.8782L96.868 69.9587L114.561 61.1067L118.716 63.5079C119.893 64.1907 120.882 65.2148 121.671 66.5803C122.471 67.9576 122.871 69.3232 122.871 70.6651Z" stroke="white" stroke-width="2.05348" stroke-linecap="round" stroke-linejoin="round"/>
<path d="M122.871 89.7338C122.871 91.0876 122.471 91.9822 121.671 92.4413L121.423 92.559L114.561 95.9962L102.059 102.247L98.3159 104.119H98.3042C98.3042 104.119 98.2923 104.119 98.2805 104.119C98.975 103.648 99.3282 102.777 99.3282 101.517C99.3282 100.163 98.9279 98.7979 98.1275 97.4324C97.3388 96.0552 96.3501 95.031 95.1729 94.3483L91.0176 91.9587L102.106 86.4143L114.561 80.1871L118.716 82.5768C119.893 83.2595 120.882 84.2836 121.671 85.6609C122.471 87.0264 122.871 88.3919 122.871 89.7456V89.7338Z" stroke="white" stroke-width="2.05348" stroke-linecap="round" stroke-linejoin="round"/>
</svg>
