<svg width="15" height="15" viewBox="0 0 15 15" fill="none" xmlns="http://www.w3.org/2000/svg">
<path d="M5.625 6.25C6.31536 6.25 6.875 5.69036 6.875 5C6.875 4.30964 6.31536 3.75 5.625 3.75C4.93464 3.75 4.375 4.30964 4.375 5C4.375 5.69036 4.93464 6.25 5.625 6.25Z" stroke="#E3DFFF" stroke-width="0.9375" stroke-linecap="round" stroke-linejoin="round"/>
<path d="M7.5 1.25H5.625C2.5 1.25 1.25 2.5 1.25 5.625V9.375C1.25 12.5 2.5 13.75 5.625 13.75H9.375C12.5 13.75 13.75 12.5 13.75 9.375V6.875" stroke="#E3DFFF" stroke-width="0.9375" stroke-linecap="round" stroke-linejoin="round"/>
<path d="M10.075 3.19375C9.86878 2.54375 10.1125 1.7375 10.7875 1.51875C11.1438 1.40625 11.5875 1.5 11.8375 1.84375C12.075 1.4875 12.5313 1.4 12.8875 1.51875C13.5688 1.7375 13.8125 2.54375 13.6063 3.19375C13.2813 4.21875 12.1563 4.75625 11.8438 4.75625C11.525 4.75625 10.4063 4.23125 10.075 3.19375Z" stroke="#E3DFFF" stroke-width="0.9375" stroke-linecap="round" stroke-linejoin="round"/>
<path d="M1.66797 11.8438L4.74922 9.775C5.24297 9.44375 5.95547 9.48125 6.39922 9.8625L6.60547 10.0438C7.09297 10.4625 7.88047 10.4625 8.36797 10.0438L10.968 7.8125C11.4555 7.39375 12.243 7.39375 12.7305 7.8125L13.7492 8.6875" stroke="#E3DFFF" stroke-width="0.9375" stroke-linecap="round" stroke-linejoin="round"/>
</svg>
