<svg width="31" height="31" viewBox="0 0 31 31" fill="none" xmlns="http://www.w3.org/2000/svg">
<path d="M1.99902 21.5006L8.17538 22.0004L10.9998 16.5L14.9998 16L18.9998 21.5H27.9998L24.9998 15.5L28.4998 9.5H22.4995L21.4993 2.5L15.4995 6.5C15.4995 6.5 6.99902 -1.99931 9.49902 8.50024C9.59492 8.903 3.26944 9.38344 2.99902 10.0006C2.49401 11.1531 6.22333 13.5642 5.99902 15.5006C4.99902 18.5006 1.99902 21.5006 1.99902 21.5006Z" fill="url(#paint0_linear_7_6211)"/>
<path d="M14.5071 0.425082C13.9735 0.977676 13.9735 1.51122 14.488 2.15908C15.2502 3.13089 16.9461 2.54018 16.9461 1.30161C16.9461 0.120202 15.3455 -0.451447 14.5071 0.425082Z" fill="white"/>
<path d="M8.20116 2.00593C8.22021 2.10121 8.22021 3.60655 8.20116 5.35961L8.1821 8.56084H5.11425H2.02734L2.14167 9.81847C2.31317 11.9526 3.36119 13.6676 5.40007 15.1348L5.95267 15.5159L5.13331 16.0876C3.36119 17.3261 2.08451 19.6318 2.08451 21.6135V22.6615H5.19047H8.27738V25.7484V28.8544L9.40162 28.8163C11.5548 28.7401 13.4794 27.692 14.7751 25.9009L15.4611 24.9481L15.9946 25.7675C17.0808 27.4824 18.9863 28.6067 21.2348 28.8735L22.2828 29.0068V25.8247V22.6615H25.6365H28.9901L28.9139 21.3658C28.7805 19.2126 27.3705 16.8307 25.6365 15.897L24.9886 15.535L25.808 15.0014C27.5991 13.82 28.7424 11.8955 28.9139 9.78036L29.0092 8.56084L25.6936 8.52273L22.3781 8.46557L22.3209 5.15L22.2828 1.83444L21.0823 1.96782C19.3864 2.13932 17.7668 2.97774 16.5663 4.31158C16.0518 4.92134 15.6135 5.51205 15.6135 5.64543C15.6135 6.10275 15.3277 5.9122 14.9466 5.20717C14.4131 4.21631 12.8315 2.90151 11.6311 2.44419C10.5068 2.02499 8.14399 1.72011 8.20116 2.00593ZM11.3071 3.7971C12.6219 4.42591 13.4794 5.26433 14.0891 6.54102C14.5846 7.6081 14.6608 7.97014 14.6608 9.41832V11.0761L13.8986 10.4092C12.984 9.57076 11.9359 9.01816 10.6021 8.67517L9.61123 8.42746L9.55406 5.9122L9.4969 3.416H10.0304C10.2972 3.416 10.8879 3.58749 11.3071 3.7971ZM20.9108 7.07456C20.8537 10.6378 20.8346 10.7712 20.3392 11.724C19.7104 12.9244 18.529 13.9725 17.3666 14.3536C15.9184 14.849 15.9946 15.0205 15.9946 11.4191C15.9946 7.87486 16.1661 6.96023 17.1379 5.64543C17.9954 4.48308 19.577 3.47316 20.625 3.43505C20.9489 3.416 20.968 3.6256 20.9108 7.07456ZM11.3071 10.2758C12.8887 10.8855 14.6417 13.0388 14.6608 14.4107C14.6608 14.849 14.6608 14.849 11.4214 14.849C8.60131 14.849 8.06777 14.7918 7.11502 14.4488C5.34291 13.7819 3.93284 12.2194 3.51363 10.4092L3.38025 9.89469H6.8292C9.82083 9.89469 10.3925 9.95186 11.3071 10.2758ZM27.6182 10.0471C27.6182 10.6378 26.8941 12.1051 26.2462 12.8482C25.0076 14.2583 23.9025 14.7156 21.5206 14.8109L19.5389 14.8871L20.4916 13.8391C21.4063 12.8482 22.2828 11.0952 22.2828 10.2567C22.2828 9.91375 22.4543 9.89469 24.9505 9.89469C26.4177 9.89469 27.6182 9.97091 27.6182 10.0471ZM10.3353 16.9831C9.49689 17.8597 8.67753 19.4222 8.46793 20.6036L8.33454 21.3277H5.85739H3.38025L3.51363 20.6989C3.87568 19.0411 5.05709 17.5929 6.69581 16.7545C7.72478 16.2591 8.04872 16.1828 9.4969 16.1828H11.1166L10.3353 16.9831ZM14.6608 19.6127C14.6608 22.814 14.6417 23.0998 14.2035 24.0907C13.4794 25.7103 11.5929 27.2728 10.0876 27.4634L9.61123 27.5205V24.0907C9.63028 20.8132 9.64933 20.6036 10.1067 19.5937C10.7164 18.2979 11.7644 17.2309 13.0411 16.6402C14.737 15.8398 14.6608 15.7065 14.6608 19.6127ZM24.5503 16.8498C26.0747 17.6882 27.2371 19.2126 27.542 20.756L27.6753 21.3658L24.074 21.2896C20.6059 21.2324 20.4345 21.2133 19.5008 20.7179C17.9001 19.8795 16.6806 18.336 16.2995 16.6973L16.1661 16.1447L19.8437 16.2209C23.5214 16.2781 23.5214 16.2781 24.5503 16.8498ZM16.9474 20.5845C17.8239 21.423 19.8056 22.471 20.5297 22.471C20.9489 22.471 20.9489 22.5091 20.9489 24.9672V27.4634L20.3582 27.3491C17.8239 26.8536 16.1852 24.6051 16.0328 21.4611C15.9756 20.5464 15.9946 19.8033 16.0328 19.8033C16.0899 19.8033 16.4901 20.1653 16.9474 20.5845Z" fill="white"/>
<path d="M0.368502 14.5044C-0.450862 15.381 0.177952 16.7529 1.41653 16.7529C2.10251 16.7529 2.84565 16.067 2.84565 15.4191C2.84565 15.2285 2.67415 14.8665 2.44549 14.5807C1.93101 13.9328 0.940152 13.8947 0.368502 14.5044Z" fill="white"/>
<path d="M28.5877 14.5808C28.0733 15.2286 28.0923 15.6097 28.5877 16.2576C29.1213 16.9436 30.1693 16.8864 30.7219 16.1433C31.7509 14.7523 29.6548 13.2279 28.5877 14.5808Z" fill="white"/>
<path d="M14.4881 28.6825C14.0117 29.2923 13.9927 29.6734 14.3928 30.245C15.0216 31.1406 16.2983 31.1025 16.7366 30.1688C17.0415 29.5019 17.0033 29.2732 16.546 28.6825C16.2602 28.3205 15.9744 28.1871 15.5171 28.1871C15.0597 28.1871 14.7739 28.3205 14.4881 28.6825Z" fill="white"/>
<path d="M14.5071 0.425082C13.9735 0.977676 13.9735 1.51122 14.488 2.15908C15.2502 3.13089 16.9461 2.54018 16.9461 1.30161C16.9461 0.120202 15.3455 -0.451447 14.5071 0.425082Z" fill="white"/>
<path d="M8.20116 2.00593C8.22021 2.10121 8.22021 3.60655 8.20116 5.35961L8.1821 8.56084H5.11425H2.02734L2.14167 9.81847C2.31317 11.9526 3.36119 13.6676 5.40007 15.1348L5.95267 15.5159L5.13331 16.0876C3.36119 17.3261 2.08451 19.6318 2.08451 21.6135V22.6615H5.19047H8.27738V25.7484V28.8544L9.40162 28.8163C11.5548 28.7401 13.4794 27.692 14.7751 25.9009L15.4611 24.9481L15.9946 25.7675C17.0808 27.4824 18.9863 28.6067 21.2348 28.8735L22.2828 29.0068V25.8247V22.6615H25.6365H28.9901L28.9139 21.3658C28.7805 19.2126 27.3705 16.8307 25.6365 15.897L24.9886 15.535L25.808 15.0014C27.5991 13.82 28.7424 11.8955 28.9139 9.78036L29.0092 8.56084L25.6936 8.52273L22.3781 8.46557L22.3209 5.15L22.2828 1.83444L21.0823 1.96782C19.3864 2.13932 17.7668 2.97774 16.5663 4.31158C16.0518 4.92134 15.6135 5.51205 15.6135 5.64543C15.6135 6.10275 15.3277 5.9122 14.9466 5.20717C14.4131 4.21631 12.8315 2.90151 11.6311 2.44419C10.5068 2.02499 8.14399 1.72011 8.20116 2.00593ZM11.3071 3.7971C12.6219 4.42591 13.4794 5.26433 14.0891 6.54102C14.5846 7.6081 14.6608 7.97014 14.6608 9.41832V11.0761L13.8986 10.4092C12.984 9.57076 11.9359 9.01816 10.6021 8.67517L9.61123 8.42746L9.55406 5.9122L9.4969 3.416H10.0304C10.2972 3.416 10.8879 3.58749 11.3071 3.7971ZM20.9108 7.07456C20.8537 10.6378 20.8346 10.7712 20.3392 11.724C19.7104 12.9244 18.529 13.9725 17.3666 14.3536C15.9184 14.849 15.9946 15.0205 15.9946 11.4191C15.9946 7.87486 16.1661 6.96023 17.1379 5.64543C17.9954 4.48308 19.577 3.47316 20.625 3.43505C20.9489 3.416 20.968 3.6256 20.9108 7.07456ZM11.3071 10.2758C12.8887 10.8855 14.6417 13.0388 14.6608 14.4107C14.6608 14.849 14.6608 14.849 11.4214 14.849C8.60131 14.849 8.06777 14.7918 7.11502 14.4488C5.34291 13.7819 3.93284 12.2194 3.51363 10.4092L3.38025 9.89469H6.8292C9.82083 9.89469 10.3925 9.95186 11.3071 10.2758ZM27.6182 10.0471C27.6182 10.6378 26.8941 12.1051 26.2462 12.8482C25.0076 14.2583 23.9025 14.7156 21.5206 14.8109L19.5389 14.8871L20.4916 13.8391C21.4063 12.8482 22.2828 11.0952 22.2828 10.2567C22.2828 9.91375 22.4543 9.89469 24.9505 9.89469C26.4177 9.89469 27.6182 9.97091 27.6182 10.0471ZM10.3353 16.9831C9.49689 17.8597 8.67753 19.4222 8.46793 20.6036L8.33454 21.3277H5.85739H3.38025L3.51363 20.6989C3.87568 19.0411 5.05709 17.5929 6.69581 16.7545C7.72478 16.2591 8.04872 16.1828 9.4969 16.1828H11.1166L10.3353 16.9831ZM14.6608 19.6127C14.6608 22.814 14.6417 23.0998 14.2035 24.0907C13.4794 25.7103 11.5929 27.2728 10.0876 27.4634L9.61123 27.5205V24.0907C9.63028 20.8132 9.64933 20.6036 10.1067 19.5937C10.7164 18.2979 11.7644 17.2309 13.0411 16.6402C14.737 15.8398 14.6608 15.7065 14.6608 19.6127ZM24.5503 16.8498C26.0747 17.6882 27.2371 19.2126 27.542 20.756L27.6753 21.3658L24.074 21.2896C20.6059 21.2324 20.4345 21.2133 19.5008 20.7179C17.9001 19.8795 16.6806 18.336 16.2995 16.6973L16.1661 16.1447L19.8437 16.2209C23.5214 16.2781 23.5214 16.2781 24.5503 16.8498ZM16.9474 20.5845C17.8239 21.423 19.8056 22.471 20.5297 22.471C20.9489 22.471 20.9489 22.5091 20.9489 24.9672V27.4634L20.3582 27.3491C17.8239 26.8536 16.1852 24.6051 16.0328 21.4611C15.9756 20.5464 15.9946 19.8033 16.0328 19.8033C16.0899 19.8033 16.4901 20.1653 16.9474 20.5845Z" fill="white"/>
<path d="M0.368502 14.5044C-0.450862 15.381 0.177952 16.7529 1.41653 16.7529C2.10251 16.7529 2.84565 16.067 2.84565 15.4191C2.84565 15.2285 2.67415 14.8665 2.44549 14.5807C1.93101 13.9328 0.940152 13.8947 0.368502 14.5044Z" fill="white"/>
<path d="M28.5877 14.5808C28.0733 15.2286 28.0923 15.6097 28.5877 16.2576C29.1213 16.9436 30.1693 16.8864 30.7219 16.1433C31.7509 14.7523 29.6548 13.2279 28.5877 14.5808Z" fill="white"/>
<path d="M14.4881 28.6825C14.0117 29.2923 13.9927 29.6734 14.3928 30.245C15.0216 31.1406 16.2983 31.1025 16.7366 30.1688C17.0415 29.5019 17.0033 29.2732 16.546 28.6825C16.2602 28.3205 15.9744 28.1871 15.5171 28.1871C15.0597 28.1871 14.7739 28.3205 14.4881 28.6825Z" fill="white"/>
<defs>
<linearGradient id="paint0_linear_7_6211" x1="4.00088" y1="2.5" x2="27.5386" y2="6.20125" gradientUnits="userSpaceOnUse">
<stop stop-color="#4827EB" stop-opacity="0.66"/>
<stop offset="1" stop-color="#9F48FC" stop-opacity="0.71"/>
</linearGradient>
</defs>
</svg>
