<svg width="31" height="31" viewBox="0 0 31 31" fill="none" xmlns="http://www.w3.org/2000/svg">
<path d="M2 21.5006L8.17636 22.0004L11 17.0001L19.5002 14L21.5002 8V2.5L15.0002 6.5C15.0002 6.5 7 -1.99931 9.5 8.50024C9.5959 8.903 3.27042 9.38344 3 10.0006C2.49499 11.1531 6.22431 13.5642 6 15.5006C5 18.5006 2 21.5006 2 21.5006Z" fill="url(#paint0_linear_7_6185)"/>
<path d="M14.508 0.425082C13.9745 0.977676 13.9745 1.51122 14.489 2.15908C15.2512 3.13089 16.9471 2.54018 16.9471 1.30161C16.9471 0.120202 15.3465 -0.451447 14.508 0.425082Z" fill="white"/>
<path d="M8.20213 2.00593C8.22119 2.10121 8.22119 3.60655 8.20213 5.35961L8.18308 8.56084H5.11523H2.02832L2.14265 9.81847C2.31414 11.9526 3.36217 13.6676 5.40105 15.1348L5.95365 15.5159L5.13428 16.0876C3.36217 17.3261 2.08549 19.6318 2.08549 21.6135V22.6615H5.19145H8.27835V25.7484V28.8544L9.4026 28.8163C11.5558 28.7401 13.4804 27.692 14.7761 25.9009L15.4621 24.9481L15.9956 25.7675C17.0818 27.4824 18.9873 28.6067 21.2357 28.8735L22.2838 29.0068V25.8247V22.6615H25.6374H28.9911L28.9149 21.3658C28.7815 19.2126 27.3714 16.8307 25.6374 15.897L24.9896 15.535L25.8089 15.0014C27.6001 13.82 28.7434 11.8955 28.9149 9.78036L29.0102 8.56084L25.6946 8.52273L22.379 8.46557L22.3219 5.15L22.2838 1.83444L21.0833 1.96782C19.3874 2.13932 17.7677 2.97774 16.5673 4.31158C16.0528 4.92134 15.6145 5.51205 15.6145 5.64543C15.6145 6.10275 15.3287 5.9122 14.9476 5.20717C14.4141 4.21631 12.8325 2.90151 11.632 2.44419C10.5078 2.02499 8.14497 1.72011 8.20213 2.00593ZM11.3081 3.7971C12.6229 4.42591 13.4804 5.26433 14.0901 6.54102C14.5856 7.6081 14.6618 7.97014 14.6618 9.41832V11.0761L13.8996 10.4092C12.9849 9.57076 11.9369 9.01816 10.6031 8.67517L9.6122 8.42746L9.55504 5.9122L9.49787 3.416H10.0314C10.2982 3.416 10.8889 3.58749 11.3081 3.7971ZM20.9118 7.07456C20.8546 10.6378 20.8356 10.7712 20.3402 11.724C19.7113 12.9244 18.5299 13.9725 17.3676 14.3536C15.9194 14.849 15.9956 15.0205 15.9956 11.4191C15.9956 7.87486 16.1671 6.96023 17.1389 5.64543C17.9964 4.48308 19.578 3.47316 20.626 3.43505C20.9499 3.416 20.969 3.6256 20.9118 7.07456ZM11.3081 10.2758C12.8897 10.8855 14.6427 13.0388 14.6618 14.4107C14.6618 14.849 14.6618 14.849 11.4224 14.849C8.60229 14.849 8.06875 14.7918 7.116 14.4488C5.34389 13.7819 3.93382 12.2194 3.51461 10.4092L3.38122 9.89469H6.83017C9.82181 9.89469 10.3935 9.95186 11.3081 10.2758ZM27.6192 10.0471C27.6192 10.6378 26.8951 12.1051 26.2472 12.8482C25.0086 14.2583 23.9034 14.7156 21.5216 14.8109L19.5398 14.8871L20.4926 13.8391C21.4072 12.8482 22.2838 11.0952 22.2838 10.2567C22.2838 9.91375 22.4553 9.89469 24.9515 9.89469C26.4187 9.89469 27.6192 9.97091 27.6192 10.0471ZM10.3363 16.9831C9.49787 17.8597 8.67851 19.4222 8.4689 20.6036L8.33552 21.3277H5.85837H3.38122L3.51461 20.6989C3.87665 19.0411 5.05806 17.5929 6.69679 16.7545C7.72576 16.2591 8.04969 16.1828 9.49787 16.1828H11.1175L10.3363 16.9831ZM14.6618 19.6127C14.6618 22.814 14.6427 23.0998 14.2045 24.0907C13.4804 25.7103 11.5939 27.2728 10.0886 27.4634L9.6122 27.5205V24.0907C9.63126 20.8132 9.65031 20.6036 10.1076 19.5937C10.7174 18.2979 11.7654 17.2309 13.0421 16.6402C14.738 15.8398 14.6618 15.7065 14.6618 19.6127ZM24.5513 16.8498C26.0757 17.6882 27.2381 19.2126 27.5429 20.756L27.6763 21.3658L24.0749 21.2896C20.6069 21.2324 20.4354 21.2133 19.5017 20.7179C17.9011 19.8795 16.6816 18.336 16.3005 16.6973L16.1671 16.1447L19.8447 16.2209C23.5223 16.2781 23.5223 16.2781 24.5513 16.8498ZM16.9484 20.5845C17.8249 21.423 19.8066 22.471 20.5307 22.471C20.9499 22.471 20.9499 22.5091 20.9499 24.9672V27.4634L20.3592 27.3491C17.8249 26.8536 16.1862 24.6051 16.0337 21.4611C15.9766 20.5464 15.9956 19.8033 16.0337 19.8033C16.0909 19.8033 16.491 20.1653 16.9484 20.5845Z" fill="white"/>
<path d="M0.369479 14.5044C-0.449885 15.381 0.178929 16.7529 1.4175 16.7529C2.10348 16.7529 2.84663 16.067 2.84663 15.4191C2.84663 15.2285 2.67513 14.8665 2.44647 14.5807C1.93199 13.9328 0.941128 13.8947 0.369479 14.5044Z" fill="white"/>
<path d="M28.5887 14.5808C28.0742 15.2286 28.0933 15.6097 28.5887 16.2576C29.1223 16.9436 30.1703 16.8864 30.7229 16.1433C31.7518 14.7523 29.6558 13.2279 28.5887 14.5808Z" fill="white"/>
<path d="M14.4891 28.6825C14.0127 29.2923 13.9936 29.6734 14.3938 30.245C15.0226 31.1406 16.2993 31.1025 16.7376 30.1688C17.0424 29.5019 17.0043 29.2732 16.547 28.6825C16.2612 28.3205 15.9754 28.1871 15.518 28.1871C15.0607 28.1871 14.7749 28.3205 14.4891 28.6825Z" fill="white"/>
<path d="M14.508 0.425082C13.9745 0.977676 13.9745 1.51122 14.489 2.15908C15.2512 3.13089 16.9471 2.54018 16.9471 1.30161C16.9471 0.120202 15.3465 -0.451447 14.508 0.425082Z" fill="white"/>
<path d="M8.20116 2.00593C8.22021 2.10121 8.22021 3.60655 8.20116 5.35961L8.1821 8.56084H5.11425H2.02734L2.14167 9.81847C2.31317 11.9526 3.36119 13.6676 5.40007 15.1348L5.95267 15.5159L5.13331 16.0876C3.36119 17.3261 2.08451 19.6318 2.08451 21.6135V22.6615H5.19047H8.27738V25.7484V28.8544L9.40162 28.8163C11.5548 28.7401 13.4794 27.692 14.7751 25.9009L15.4611 24.9481L15.9946 25.7675C17.0808 27.4824 18.9863 28.6067 21.2348 28.8735L22.2828 29.0068V25.8247V22.6615H25.6365H28.9901L28.9139 21.3658C28.7805 19.2126 27.3705 16.8307 25.6365 15.897L24.9886 15.535L25.808 15.0014C27.5991 13.82 28.7424 11.8955 28.9139 9.78036L29.0092 8.56084L25.6936 8.52273L22.3781 8.46557L22.3209 5.15L22.2828 1.83444L21.0823 1.96782C19.3864 2.13932 17.7668 2.97774 16.5663 4.31158C16.0518 4.92134 15.6135 5.51205 15.6135 5.64543C15.6135 6.10275 15.3277 5.9122 14.9466 5.20717C14.4131 4.21631 12.8315 2.90151 11.6311 2.44419C10.5068 2.02499 8.14399 1.72011 8.20116 2.00593ZM11.3071 3.7971C12.6219 4.42591 13.4794 5.26433 14.0891 6.54102C14.5846 7.6081 14.6608 7.97014 14.6608 9.41832V11.0761L13.8986 10.4092C12.984 9.57076 11.9359 9.01816 10.6021 8.67517L9.61123 8.42746L9.55406 5.9122L9.4969 3.416H10.0304C10.2972 3.416 10.8879 3.58749 11.3071 3.7971ZM20.9108 7.07456C20.8537 10.6378 20.8346 10.7712 20.3392 11.724C19.7104 12.9244 18.529 13.9725 17.3666 14.3536C15.9184 14.849 15.9946 15.0205 15.9946 11.4191C15.9946 7.87486 16.1661 6.96023 17.1379 5.64543C17.9954 4.48308 19.577 3.47316 20.625 3.43505C20.9489 3.416 20.968 3.6256 20.9108 7.07456ZM11.3071 10.2758C12.8887 10.8855 14.6417 13.0388 14.6608 14.4107C14.6608 14.849 14.6608 14.849 11.4214 14.849C8.60131 14.849 8.06777 14.7918 7.11502 14.4488C5.34291 13.7819 3.93284 12.2194 3.51363 10.4092L3.38025 9.89469H6.8292C9.82083 9.89469 10.3925 9.95186 11.3071 10.2758ZM27.6182 10.0471C27.6182 10.6378 26.8941 12.1051 26.2462 12.8482C25.0076 14.2583 23.9025 14.7156 21.5206 14.8109L19.5389 14.8871L20.4916 13.8391C21.4063 12.8482 22.2828 11.0952 22.2828 10.2567C22.2828 9.91375 22.4543 9.89469 24.9505 9.89469C26.4177 9.89469 27.6182 9.97091 27.6182 10.0471ZM10.3353 16.9831C9.49689 17.8597 8.67753 19.4222 8.46793 20.6036L8.33454 21.3277H5.85739H3.38025L3.51363 20.6989C3.87568 19.0411 5.05709 17.5929 6.69581 16.7545C7.72478 16.2591 8.04872 16.1828 9.4969 16.1828H11.1166L10.3353 16.9831ZM14.6608 19.6127C14.6608 22.814 14.6417 23.0998 14.2035 24.0907C13.4794 25.7103 11.5929 27.2728 10.0876 27.4634L9.61123 27.5205V24.0907C9.63028 20.8132 9.64933 20.6036 10.1067 19.5937C10.7164 18.2979 11.7644 17.2309 13.0411 16.6402C14.737 15.8398 14.6608 15.7065 14.6608 19.6127ZM24.5503 16.8498C26.0747 17.6882 27.2371 19.2126 27.542 20.756L27.6753 21.3658L24.074 21.2896C20.6059 21.2324 20.4345 21.2133 19.5008 20.7179C17.9001 19.8795 16.6806 18.336 16.2995 16.6973L16.1661 16.1447L19.8437 16.2209C23.5214 16.2781 23.5214 16.2781 24.5503 16.8498ZM16.9474 20.5845C17.8239 21.423 19.8056 22.471 20.5297 22.471C20.9489 22.471 20.9489 22.5091 20.9489 24.9672V27.4634L20.3582 27.3491C17.8239 26.8536 16.1852 24.6051 16.0328 21.4611C15.9756 20.5464 15.9946 19.8033 16.0328 19.8033C16.0899 19.8033 16.4901 20.1653 16.9474 20.5845Z" fill="white"/>
<path d="M0.369479 14.5044C-0.449885 15.381 0.178929 16.7529 1.4175 16.7529C2.10348 16.7529 2.84663 16.067 2.84663 15.4191C2.84663 15.2285 2.67513 14.8665 2.44647 14.5807C1.93199 13.9328 0.941128 13.8947 0.369479 14.5044Z" fill="white"/>
<path d="M28.5887 14.5808C28.0742 15.2286 28.0933 15.6097 28.5887 16.2576C29.1223 16.9436 30.1703 16.8864 30.7229 16.1433C31.7518 14.7523 29.6558 13.2279 28.5887 14.5808Z" fill="white"/>
<path d="M14.4891 28.6825C14.0127 29.2923 13.9936 29.6734 14.3938 30.245C15.0226 31.1406 16.2993 31.1025 16.7376 30.1688C17.0424 29.5019 17.0043 29.2732 16.547 28.6825C16.2612 28.3205 15.9754 28.1871 15.518 28.1871C15.0607 28.1871 14.7749 28.3205 14.4891 28.6825Z" fill="white"/>
<defs>
<linearGradient id="paint0_linear_7_6185" x1="3.47304" y1="2.5" x2="20.9868" y2="4.52649" gradientUnits="userSpaceOnUse">
<stop stop-color="#4827EB" stop-opacity="0.66"/>
<stop offset="1" stop-color="#9F48FC" stop-opacity="0.71"/>
</linearGradient>
</defs>
</svg>
