<svg width="126" height="31" viewBox="0 0 126 31" fill="none" xmlns="http://www.w3.org/2000/svg">
<path d="M14.508 0.477816C13.9745 1.03041 13.9745 1.56395 14.489 2.21182C15.2512 3.18362 16.9471 2.59292 16.9471 1.35435C16.9471 0.172936 15.3465 -0.398713 14.508 0.477816Z" fill="white"/>
<path d="M8.20116 2.05867C8.22021 2.15394 8.22021 3.65929 8.20116 5.41235L8.1821 8.61358H5.11425H2.02734L2.14167 9.87121C2.31317 12.0054 3.36119 13.7203 5.40007 15.1875L5.95267 15.5686L5.13331 16.1403C3.36119 17.3789 2.08451 19.6845 2.08451 21.6662V22.7143H5.19047H8.27738V25.8012V28.9071L9.40162 28.869C11.5548 28.7928 13.4794 27.7448 14.7751 25.9536L15.4611 25.0009L15.9946 25.8202C17.0808 27.5352 18.9863 28.6594 21.2348 28.9262L22.2828 29.0596V25.8774V22.7143H25.6365H28.9901L28.9139 21.4185C28.7805 19.2653 27.3705 16.8834 25.6365 15.9497L24.9886 15.5877L25.808 15.0542C27.5991 13.8728 28.7424 11.9482 28.9139 9.8331L29.0092 8.61358L25.6936 8.57547L22.3781 8.51831L22.3209 5.20274L22.2828 1.88717L21.0823 2.02056C19.3864 2.19205 17.7668 3.03047 16.5663 4.36432C16.0518 4.97408 15.6135 5.56479 15.6135 5.69817C15.6135 6.15549 15.3277 5.96494 14.9466 5.2599C14.4131 4.26905 12.8315 2.95425 11.6311 2.49693C10.5068 2.07772 8.14399 1.77284 8.20116 2.05867ZM11.3071 3.84984C12.6219 4.47865 13.4794 5.31707 14.0891 6.59375C14.5846 7.66083 14.6608 8.02287 14.6608 9.47105V11.1288L13.8986 10.4619C12.984 9.62349 11.9359 9.0709 10.6021 8.72791L9.61123 8.4802L9.55406 5.96494L9.4969 3.46874H10.0304C10.2972 3.46874 10.8879 3.64023 11.3071 3.84984ZM20.9108 7.12729C20.8537 10.6906 20.8346 10.824 20.3392 11.7767C19.7104 12.9772 18.529 14.0252 17.3666 14.4063C15.9184 14.9017 15.9946 15.0732 15.9946 11.4718C15.9946 7.9276 16.1661 7.01296 17.1379 5.69817C17.9954 4.53582 19.577 3.5259 20.625 3.48779C20.9489 3.46874 20.968 3.67834 20.9108 7.12729ZM11.3071 10.3285C12.8887 10.9383 14.6417 13.0915 14.6608 14.4635C14.6608 14.9017 14.6608 14.9017 11.4214 14.9017C8.60131 14.9017 8.06777 14.8446 7.11502 14.5016C5.34291 13.8346 3.93284 12.2721 3.51363 10.4619L3.38025 9.94743H6.8292C9.82083 9.94743 10.3925 10.0046 11.3071 10.3285ZM27.6182 10.0999C27.6182 10.6906 26.8941 12.1578 26.2462 12.901C25.0076 14.311 23.9025 14.7683 21.5206 14.8636L19.5389 14.9398L20.4916 13.8918C21.4063 12.901 22.2828 11.1479 22.2828 10.3095C22.2828 9.96648 22.4543 9.94743 24.9505 9.94743C26.4177 9.94743 27.6182 10.0236 27.6182 10.0999ZM10.3353 17.0359C9.49689 17.9124 8.67753 19.4749 8.46793 20.6563L8.33454 21.3804H5.85739H3.38025L3.51363 20.7516C3.87568 19.0938 5.05709 17.6456 6.69581 16.8072C7.72478 16.3118 8.04872 16.2356 9.4969 16.2356H11.1166L10.3353 17.0359ZM14.6608 19.6655C14.6608 22.8667 14.6417 23.1525 14.2035 24.1434C13.4794 25.7631 11.5929 27.3256 10.0876 27.5161L9.61123 27.5733V24.1434C9.63028 20.8659 9.64933 20.6563 10.1067 19.6464C10.7164 18.3507 11.7644 17.2836 13.0411 16.6929C14.737 15.8926 14.6608 15.7592 14.6608 19.6655ZM24.5503 16.9025C26.0747 17.7409 27.2371 19.2653 27.542 20.8088L27.6753 21.4185L24.074 21.3423C20.6059 21.2851 20.4345 21.2661 19.5008 20.7707C17.9001 19.9322 16.6806 18.3888 16.2995 16.7501L16.1661 16.1975L19.8437 16.2737C23.5214 16.3308 23.5214 16.3308 24.5503 16.9025ZM16.9474 20.6373C17.8239 21.4757 19.8056 22.5237 20.5297 22.5237C20.9489 22.5237 20.9489 22.5618 20.9489 25.0199V27.5161L20.3582 27.4018C17.8239 26.9064 16.1852 24.6579 16.0328 21.5138C15.9756 20.5992 15.9946 19.856 16.0328 19.856C16.0899 19.856 16.4901 20.2181 16.9474 20.6373Z" fill="white"/>
<path d="M0.369479 14.5572C-0.449885 15.4337 0.178929 16.8057 1.4175 16.8057C2.10348 16.8057 2.84663 16.1197 2.84663 15.4718C2.84663 15.2813 2.67513 14.9192 2.44647 14.6334C1.93199 13.9855 0.941128 13.9474 0.369479 14.5572Z" fill="white"/>
<path d="M28.5897 14.6335C28.0752 15.2814 28.0943 15.6625 28.5897 16.3103C29.1232 16.9963 30.1713 16.9391 30.7238 16.196C31.7528 14.805 29.6568 13.2806 28.5897 14.6335Z" fill="white"/>
<path d="M14.4891 28.7352C14.0127 29.345 13.9936 29.7261 14.3938 30.2978C15.0226 31.1933 16.2993 31.1552 16.7376 30.2215C17.0424 29.5546 17.0043 29.3259 16.547 28.7352C16.2612 28.3732 15.9754 28.2398 15.518 28.2398C15.0607 28.2398 14.7749 28.3732 14.4891 28.7352Z" fill="white"/>
<path d="M47.8706 27H37.6626V4.12H47.2946C51.9986 4.12 54.7506 6.232 54.7506 9.88C54.7506 12.696 53.0866 14.008 51.1986 14.648V14.712C53.5986 15.128 55.6466 16.888 55.6466 20.312C55.6466 24.696 52.6066 27 47.8706 27ZM41.1826 13.624H47.1986C50.0786 13.624 51.0706 12.44 51.0706 10.392C51.0706 8.376 49.8546 7.16 47.4546 7.16H41.1826V13.624ZM41.1826 23.96H47.6146C51.0066 23.96 51.9666 22.328 51.9666 20.184C51.9666 17.784 50.4946 16.408 48.0946 16.408H41.1826V23.96ZM61.4429 27H58.3069V4.12H61.4429V27ZM72.2591 27.48C67.1711 27.48 64.0991 23.96 64.0991 18.84C64.0991 13.752 67.1711 10.168 72.2911 10.168C77.3471 10.168 80.4191 13.72 80.4191 18.808C80.4191 23.928 77.3471 27.48 72.2591 27.48ZM72.2911 24.888C75.6191 24.888 77.1551 22.232 77.1551 18.84C77.1551 15.416 75.6191 12.792 72.2911 12.792C68.8991 12.792 67.3631 15.416 67.3631 18.84C67.3631 22.232 68.8991 24.888 72.2911 24.888ZM90.3841 27.48C85.2961 27.48 82.2241 23.96 82.2241 18.84C82.2241 13.752 85.2961 10.168 90.4161 10.168C95.4721 10.168 98.5441 13.72 98.5441 18.808C98.5441 23.928 95.4721 27.48 90.3841 27.48ZM90.4161 24.888C93.7441 24.888 95.2801 22.232 95.2801 18.84C95.2801 15.416 93.7441 12.792 90.4161 12.792C87.0241 12.792 85.4881 15.416 85.4881 18.84C85.4881 22.232 87.0241 24.888 90.4161 24.888ZM118.973 10.2C122.269 10.2 123.933 12.184 123.933 15.672V27H120.797V16.536C120.797 14.36 120.349 12.888 117.949 12.888C115.613 12.888 114.141 14.52 114.141 16.984V27H111.005V16.536C111.005 14.36 110.557 12.888 108.157 12.888C105.821 12.888 104.349 14.52 104.349 16.984V27H101.213V10.68H104.349V12.728H104.413C105.277 11.48 106.781 10.2 109.245 10.2C111.517 10.2 112.925 11.224 113.565 13.048H113.629C114.813 11.48 116.477 10.2 118.973 10.2Z" fill="white"/>
</svg>
