<svg width="90" height="28" viewBox="0 0 90 28" fill="none" xmlns="http://www.w3.org/2000/svg">
<path d="M13.4879 0.384968C13.0043 0.885792 13.0043 1.36935 13.4706 1.95652C14.1614 2.83728 15.6984 2.30191 15.6984 1.17938C15.6984 0.108652 14.2478 -0.409442 13.4879 0.384968Z" fill="#393540"/>
<path d="M7.77314 1.81828C7.79041 1.90462 7.79041 3.26894 7.77314 4.85776L7.75587 7.75908H4.97544H2.17773L2.28135 8.89888C2.43678 10.8331 3.38662 12.3874 5.23449 13.7172L5.73531 14.0625L4.99271 14.5806C3.38662 15.7032 2.22954 17.7928 2.22954 19.5889V20.5387H5.04452H7.84222V23.3364V26.1514L8.86114 26.1169C10.8126 26.0478 12.5569 25.0979 13.7312 23.4746L14.3529 22.6111L14.8365 23.3537C15.8209 24.908 17.5478 25.9269 19.5857 26.1687L20.5355 26.2896V23.4055V20.5387H23.575H26.6145L26.5454 19.3644C26.4245 17.4129 25.1465 15.2542 23.575 14.4079L22.9878 14.0798L23.7304 13.5963C25.3538 12.5255 26.39 10.7813 26.5454 8.86435L26.6317 7.75908L23.6268 7.72454L20.6219 7.67273L20.57 4.66779L20.5355 1.66285L19.4475 1.78374C17.9105 1.93917 16.4426 2.69904 15.3546 3.90792C14.8883 4.46055 14.4911 4.99592 14.4911 5.1168C14.4911 5.53128 14.232 5.35858 13.8866 4.7196C13.4031 3.82157 11.9697 2.62996 10.8817 2.21548C9.86279 1.83554 7.72133 1.55923 7.77314 1.81828ZM10.5881 3.44164C11.7797 4.01154 12.5569 4.77141 13.1095 5.92848C13.5585 6.89559 13.6276 7.22372 13.6276 8.53622V10.0387L12.9368 9.43425C12.1079 8.67438 11.158 8.17355 9.94914 7.8627L9.05111 7.63819L8.9993 5.35858L8.94749 3.09624H9.43104C9.67282 3.09624 10.2082 3.25167 10.5881 3.44164ZM19.2921 6.41204C19.2403 9.64149 19.223 9.76237 18.774 10.6259C18.2041 11.7139 17.1334 12.6637 16.0799 13.0091C14.7674 13.4581 14.8365 13.6135 14.8365 10.3495C14.8365 7.13737 14.9919 6.30842 15.8727 5.1168C16.6498 4.06335 18.0832 3.14805 19.033 3.11351C19.3266 3.09624 19.3439 3.28621 19.2921 6.41204ZM10.5881 9.31336C12.0215 9.86599 13.6103 11.8175 13.6276 13.0609C13.6276 13.4581 13.6276 13.4581 10.6917 13.4581C8.13581 13.4581 7.65225 13.4063 6.78877 13.0954C5.18268 12.491 3.90471 11.0749 3.52478 9.43425L3.40389 8.96796H6.52972C9.24107 8.96796 9.75917 9.01977 10.5881 9.31336ZM25.371 9.10612C25.371 9.64149 24.7148 10.9713 24.1276 11.6448C23.0051 12.9227 22.0034 13.3372 19.8447 13.4236L18.0487 13.4926L18.9122 12.5428C19.7411 11.6448 20.5355 10.056 20.5355 9.29609C20.5355 8.98523 20.6909 8.96796 22.9533 8.96796C24.2831 8.96796 25.371 9.03704 25.371 9.10612ZM9.70736 15.3923C8.94749 16.1867 8.20489 17.6029 8.01492 18.6736L7.89403 19.3298H5.64896H3.40389L3.52478 18.7599C3.8529 17.2575 4.92363 15.945 6.40883 15.1851C7.3414 14.7361 7.63498 14.667 8.94749 14.667H10.4154L9.70736 15.3923ZM13.6276 17.7756C13.6276 20.6769 13.6103 20.9359 13.2131 21.8339C12.5569 23.3019 10.8472 24.718 9.48285 24.8907L9.05111 24.9425V21.8339C9.06838 18.8635 9.08565 18.6736 9.50012 17.7583C10.0528 16.5839 11.0026 15.6168 12.1597 15.0815C13.6967 14.3561 13.6276 14.2352 13.6276 17.7756ZM22.5906 15.2714C23.9722 16.0313 25.0257 17.4129 25.302 18.8117L25.4229 19.3644L22.1589 19.2953C19.0158 19.2435 18.8603 19.2262 18.0141 18.7772C16.5635 18.0173 15.4582 16.6185 15.1128 15.1333L14.9919 14.6325L18.325 14.7015C21.658 14.7533 21.658 14.7533 22.5906 15.2714ZM15.7 18.6563C16.4944 19.4162 18.2904 20.366 18.9467 20.366C19.3266 20.366 19.3266 20.4006 19.3266 22.6284V24.8907L18.7913 24.7871C16.4944 24.3381 15.0092 22.3002 14.871 19.4507C14.8192 18.6218 14.8365 17.9482 14.871 17.9482C14.9228 17.9482 15.2855 18.2764 15.7 18.6563Z" fill="#393540"/>
<path d="M0.674707 13.1467C-0.0678931 13.9411 0.502009 15.1846 1.62454 15.1846C2.24626 15.1846 2.91978 14.5629 2.91978 13.9757C2.91978 13.803 2.76435 13.4749 2.55711 13.2158C2.09083 12.6286 1.1928 12.5941 0.674707 13.1467Z" fill="#393540"/>
<path d="M26.2515 13.2155C25.7852 13.8027 25.8025 14.1481 26.2515 14.7352C26.735 15.357 27.6849 15.3052 28.1857 14.6316C29.1183 13.3709 27.2186 11.9894 26.2515 13.2155Z" fill="#393540"/>
<path d="M13.4713 25.9956C13.0395 26.5482 13.0222 26.8936 13.3849 27.4117C13.9548 28.2234 15.1119 28.1889 15.5091 27.3427C15.7854 26.7382 15.7509 26.531 15.3364 25.9956C15.0773 25.6675 14.8183 25.5466 14.4038 25.5466C13.9893 25.5466 13.7303 25.6675 13.4713 25.9956Z" fill="#393540"/>
<path d="M40.5422 20.9995H34.1622V6.69951H40.1822C43.1222 6.69951 44.8422 8.01951 44.8422 10.2995C44.8422 12.0595 43.8022 12.8795 42.6222 13.2795V13.3195C44.1222 13.5795 45.4022 14.6795 45.4022 16.8195C45.4022 19.5595 43.5022 20.9995 40.5422 20.9995ZM36.3622 12.6395H40.1222C41.9222 12.6395 42.5422 11.8995 42.5422 10.6195C42.5422 9.35951 41.7822 8.59951 40.2822 8.59951H36.3622V12.6395ZM36.3622 19.0995H40.3822C42.5022 19.0995 43.1022 18.0795 43.1022 16.7395C43.1022 15.2395 42.1822 14.3795 40.6822 14.3795H36.3622V19.0995ZM49.0248 20.9995H47.0648V6.69951H49.0248V20.9995ZM55.785 21.2995C52.605 21.2995 50.685 19.0995 50.685 15.8995C50.685 12.7195 52.605 10.4795 55.805 10.4795C58.965 10.4795 60.885 12.6995 60.885 15.8795C60.885 19.0795 58.965 21.2995 55.785 21.2995ZM55.805 19.6795C57.885 19.6795 58.845 18.0195 58.845 15.8995C58.845 13.7595 57.885 12.1195 55.805 12.1195C53.685 12.1195 52.725 13.7595 52.725 15.8995C52.725 18.0195 53.685 19.6795 55.805 19.6795ZM67.1131 21.2995C63.9331 21.2995 62.0131 19.0995 62.0131 15.8995C62.0131 12.7195 63.9331 10.4795 67.1331 10.4795C70.2931 10.4795 72.2131 12.6995 72.2131 15.8795C72.2131 19.0795 70.2931 21.2995 67.1131 21.2995ZM67.1331 19.6795C69.2131 19.6795 70.1731 18.0195 70.1731 15.8995C70.1731 13.7595 69.2131 12.1195 67.1331 12.1195C65.0131 12.1195 64.0531 13.7595 64.0531 15.8995C64.0531 18.0195 65.0131 19.6795 67.1331 19.6795ZM84.9813 10.4995C87.0413 10.4995 88.0813 11.7395 88.0813 13.9195V20.9995H86.1213V14.4595C86.1213 13.0995 85.8413 12.1795 84.3413 12.1795C82.8812 12.1795 81.9613 13.1995 81.9613 14.7395V20.9995H80.0013V14.4595C80.0013 13.0995 79.7213 12.1795 78.2213 12.1795C76.7613 12.1795 75.8413 13.1995 75.8413 14.7395V20.9995H73.8813V10.7995H75.8413V12.0795H75.8813C76.4213 11.2995 77.3613 10.4995 78.9013 10.4995C80.3213 10.4995 81.2013 11.1395 81.6013 12.2795H81.6413C82.3813 11.2995 83.4213 10.4995 84.9813 10.4995Z" fill="#393540"/>
</svg>
