<svg width="15" height="15" viewBox="0 0 15 15" fill="none" xmlns="http://www.w3.org/2000/svg">
<path d="M7.5 9.0625C8.36294 9.0625 9.0625 8.36294 9.0625 7.5C9.0625 6.63706 8.36294 5.9375 7.5 5.9375C6.63706 5.9375 5.9375 6.63706 5.9375 7.5C5.9375 8.36294 6.63706 9.0625 7.5 9.0625Z" stroke="#E3DFFF" stroke-width="0.9375" stroke-miterlimit="10" stroke-linecap="round" stroke-linejoin="round"/>
<path d="M11.5625 5.9375V9.0625" stroke="#E3DFFF" stroke-width="0.9375" stroke-miterlimit="10" stroke-linecap="round" stroke-linejoin="round"/>
<path d="M5.625 11.25C5.625 11.7188 5.49376 12.1625 5.26251 12.5375C4.83126 13.2625 4.0375 13.75 3.125 13.75C2.2125 13.75 1.41874 13.2625 0.987492 12.5375C0.756242 12.1625 0.625 11.7188 0.625 11.25C0.625 9.86875 1.74375 8.75 3.125 8.75C4.50625 8.75 5.625 9.86875 5.625 11.25Z" stroke="#E3DFFF" stroke-width="0.9375" stroke-miterlimit="10" stroke-linecap="round" stroke-linejoin="round"/>
<path d="M2.15039 11.2497L2.76913 11.8684L4.10039 10.6372" stroke="#E3DFFF" stroke-width="0.9375" stroke-linecap="round" stroke-linejoin="round"/>
<path d="M1.25 9.56249V5.625C1.25 3.4375 2.5 2.5 4.375 2.5H10.625C12.5 2.5 13.75 3.4375 13.75 5.625V9.375C13.75 11.5625 12.5 12.5 10.625 12.5H5.3125" stroke="#E3DFFF" stroke-width="0.9375" stroke-miterlimit="10" stroke-linecap="round" stroke-linejoin="round"/>
</svg>
