<svg width="53" height="54" viewBox="0 0 53 54" fill="none" xmlns="http://www.w3.org/2000/svg">
<path d="M37.4551 14.125C41.8717 17.1946 44.9192 22.075 45.5376 27.7062" stroke="#393540" stroke-width="3.3125" stroke-linecap="round" stroke-linejoin="round"/>
<path d="M7.70703 27.8166C8.2812 22.2074 11.2845 17.327 15.657 14.2354" stroke="#393540" stroke-width="3.3125" stroke-linecap="round" stroke-linejoin="round"/>
<path d="M18.0859 46.7432C20.6476 48.0461 23.5626 48.7748 26.6322 48.7748C29.5914 48.7748 32.3739 48.1123 34.8693 46.8977" stroke="#393540" stroke-width="3.3125" stroke-linecap="round" stroke-linejoin="round"/>
<path d="M26.6314 17.5029C30.0219 17.5029 32.7705 14.7543 32.7705 11.3638C32.7705 7.97321 30.0219 5.22461 26.6314 5.22461C23.2408 5.22461 20.4922 7.97321 20.4922 11.3638C20.4922 14.7543 23.2408 17.5029 26.6314 17.5029Z" stroke="#393540" stroke-width="3.3125" stroke-linecap="round" stroke-linejoin="round"/>
<path d="M10.6685 44.4912C14.059 44.4912 16.8076 41.7426 16.8076 38.3521C16.8076 34.9615 14.059 32.2129 10.6685 32.2129C7.2779 32.2129 4.5293 34.9615 4.5293 38.3521C4.5293 41.7426 7.2779 44.4912 10.6685 44.4912Z" stroke="#393540" stroke-width="3.3125" stroke-linecap="round" stroke-linejoin="round"/>
<path d="M42.3345 44.4912C45.725 44.4912 48.4736 41.7426 48.4736 38.3521C48.4736 34.9615 45.725 32.2129 42.3345 32.2129C38.9439 32.2129 36.1953 34.9615 36.1953 38.3521C36.1953 41.7426 38.9439 44.4912 42.3345 44.4912Z" stroke="#393540" stroke-width="3.3125" stroke-linecap="round" stroke-linejoin="round"/>
</svg>
