<svg width="24" height="25" viewBox="0 0 24 25" fill="none" xmlns="http://www.w3.org/2000/svg">
<path d="M6.88086 19.8161C6.47086 19.8161 6.13086 19.4761 6.13086 19.0661V16.9961C6.13086 16.5861 6.47086 16.2461 6.88086 16.2461C7.29086 16.2461 7.63086 16.5861 7.63086 16.9961V19.0661C7.63086 19.4861 7.29086 19.8161 6.88086 19.8161Z" fill="#393540"/>
<path d="M12 19.816C11.59 19.816 11.25 19.476 11.25 19.066V14.916C11.25 14.506 11.59 14.166 12 14.166C12.41 14.166 12.75 14.506 12.75 14.916V19.066C12.75 19.486 12.41 19.816 12 19.816Z" fill="#393540"/>
<path d="M17.1191 19.8157C16.7091 19.8157 16.3691 19.4757 16.3691 19.0657V12.8457C16.3691 12.4357 16.7091 12.0957 17.1191 12.0957C17.5291 12.0957 17.8691 12.4357 17.8691 12.8457V19.0657C17.8691 19.4857 17.5391 19.8157 17.1191 19.8157Z" fill="#393540"/>
<path d="M6.87958 14.0964C6.53958 14.0964 6.23958 13.8664 6.14958 13.5264C6.04958 13.1264 6.28958 12.7164 6.69958 12.6164C10.3796 11.6964 13.6196 9.68642 16.0896 6.81642L16.5496 6.27642C16.8196 5.96642 17.2896 5.92642 17.6096 6.19642C17.9196 6.46642 17.9596 6.93642 17.6896 7.25642L17.2296 7.79642C14.5596 10.9164 11.0396 13.0864 7.05958 14.0764C6.99958 14.0964 6.93958 14.0964 6.87958 14.0964Z" fill="#393540"/>
<path d="M17.1195 10.4356C16.7095 10.4356 16.3695 10.0956 16.3695 9.68563V7.51562H14.1895C13.7795 7.51562 13.4395 7.17562 13.4395 6.76562C13.4395 6.35563 13.7795 6.01562 14.1895 6.01562H17.1195C17.5295 6.01562 17.8695 6.35563 17.8695 6.76562V9.69562C17.8695 10.1056 17.5395 10.4356 17.1195 10.4356Z" fill="#393540"/>
<path d="M15 23.666H9C3.57 23.666 1.25 21.346 1.25 15.916V9.91602C1.25 4.48602 3.57 2.16602 9 2.16602H15C20.43 2.16602 22.75 4.48602 22.75 9.91602V15.916C22.75 21.346 20.43 23.666 15 23.666ZM9 3.66602C4.39 3.66602 2.75 5.30602 2.75 9.91602V15.916C2.75 20.526 4.39 22.166 9 22.166H15C19.61 22.166 21.25 20.526 21.25 15.916V9.91602C21.25 5.30602 19.61 3.66602 15 3.66602H9Z" fill="#393540"/>
</svg>
