<svg width="22" height="22" viewBox="0 0 22 22" fill="none" xmlns="http://www.w3.org/2000/svg">
<path d="M21.44 0.965C21.3639 0.781738 21.2183 0.636106 21.035 0.56C20.9448 0.521569 20.848 0.501185 20.75 0.5H5.75C5.55109 0.5 5.36032 0.579018 5.21967 0.71967C5.07902 0.860322 5 1.05109 5 1.25V5H1.25C1.05109 5 0.860322 5.07902 0.71967 5.21967C0.579018 5.36032 0.5 5.55109 0.5 5.75V20.75C0.5 20.9489 0.579018 21.1397 0.71967 21.2803C0.860322 21.421 1.05109 21.5 1.25 21.5H16.25C16.4489 21.5 16.6397 21.421 16.7803 21.2803C16.921 21.1397 17 20.9489 17 20.75V17H20.75C20.9489 17 21.1397 16.921 21.2803 16.7803C21.421 16.6397 21.5 16.4489 21.5 16.25V1.25C21.4988 1.15199 21.4784 1.05517 21.44 0.965ZM20 12.1925L16.6925 15.5H15.0575L20 10.5575V12.1925ZM20 8.4425L12.9425 15.5H11.3075L20 6.8075V8.4425ZM20 4.6925L9.1925 15.5H7.5575L20 3.0575V4.6925ZM11.4425 2L6.5 6.9425V5.3075L9.8075 2H11.4425ZM15.1925 2L6.5 10.6925V9.0575L13.5575 2H15.1925ZM6.5 12.8075L17.3075 2H18.9425L6.5 14.4425V12.8075ZM7.6925 2L6.5 3.1925V2H7.6925ZM15.5 20H2V6.5H5V16.25C5.00118 16.348 5.02157 16.4448 5.06 16.535C5.13611 16.7183 5.28174 16.8639 5.465 16.94C5.55517 16.9784 5.65199 16.9988 5.75 17H15.5V20ZM18.8075 15.5L20 14.3075V15.5H18.8075Z" fill="black"/>
</svg>
